<svg xmlns="http://www.w3.org/2000/svg" width="512" height="512" viewBox="0 0 512 512" version="1.1">
<path d="M 182 1.045 C 153.122 4.181, 122.723 14.473, 98.021 29.478 C 15.042 79.879, -20.885 181.964, 12.592 272.212 C 22.999 300.267, 38.454 324.385, 59.535 345.465 C 109.184 395.115, 179.289 415.439, 247.759 400.034 C 273.922 394.148, 300.647 381.894, 321.542 366.204 L 329.500 360.228 403.500 434.064 C 481.478 511.868, 481.559 511.941, 490.500 511.968 C 494.915 511.982, 503.550 508.353, 506.195 505.374 C 509.078 502.126, 511.956 494.695, 511.956 490.500 C 511.956 481.569, 511.882 481.486, 434.450 403.984 C 394.052 363.551, 361 330.117, 361 329.686 C 361 329.255, 363.926 324.828, 367.502 319.848 C 392.036 285.680, 405 245.241, 405 202.877 C 405 148.520, 384.079 98.149, 345.465 59.535 C 315.011 29.081, 277.161 9.714, 234 2.501 C 222.511 0.581, 193.703 -0.226, 182 1.045 M 176.500 44.956 C 113.503 55.965, 63.369 102.086, 47.642 163.500 C 37.809 201.894, 43.693 246.476, 63.085 280.508 C 88.077 324.369, 130.723 353.619, 180.500 361.039 C 190.783 362.572, 214.217 362.572, 224.500 361.039 C 289.727 351.316, 341.770 304.734, 357.462 242.027 C 361.058 227.658, 362.232 217.934, 362.232 202.500 C 362.232 187.032, 361.051 177.277, 357.451 163 C 343.503 107.679, 298.213 62.090, 243.272 48.071 C 222.254 42.707, 196.296 41.496, 176.500 44.956" stroke="none" fill="#000000" fill-rule="evenodd"/>
</svg>